<?xml version="1.0" encoding="UTF-8"?>
<svg version="1.1" xmlns="http://www.w3.org/2000/svg" width="320" height="320">
<path d="M0 0 C0.8706308 0.00176239 1.7412616 0.00352478 2.63827515 0.00534058 C48.52634848 0.21153548 87.65882192 19.30941492 119.7175293 51.61010742 C147.24897886 80.80075953 161.21618494 120.29656692 161 160 C160.99823761 160.8706308 160.99647522 161.7412616 160.99465942 162.63827515 C160.78846452 208.52634848 141.69058508 247.65882192 109.38989258 279.7175293 C80.19924047 307.24897886 40.70343308 321.21618494 1 321 C0.1293692 320.99823761 -0.7412616 320.99647522 -1.63827515 320.99465942 C-47.52634848 320.78846452 -86.65882192 301.69058508 -118.7175293 269.38989258 C-146.24897886 240.19924047 -160.21618494 200.70343308 -160 161 C-159.99823761 160.1293692 -159.99647522 159.2587384 -159.99465942 158.36172485 C-159.78846452 112.47365152 -140.69058508 73.34117808 -108.38989258 41.2824707 C-79.19924047 13.75102114 -39.70343308 -0.21618494 0 0 Z " fill="#DB322F" transform="translate(159.5,-0.5)"/>
<path d="M0 0 C1.92017944 0.0002417 1.92017944 0.0002417 3.87915039 0.00048828 C13.46820858 0.11598248 21.82027145 1.21449602 30.875 4.375 C32.00035156 4.74882813 33.12570313 5.12265625 34.28515625 5.5078125 C35.13980469 5.79398438 35.99445313 6.08015625 36.875 6.375 C36.875 6.705 36.875 7.035 36.875 7.375 C35.67746094 7.46136719 34.47992188 7.54773437 33.24609375 7.63671875 C10.98084829 9.45996737 -9.12772932 17.25492468 -24.125 34.375 C-39.2894499 53.08903074 -43.77390488 73.9669493 -41.95068359 97.63818359 C-40.82096028 108.37180754 -36.95769415 121.54230585 -29.125 129.375 C-14.90963021 123.23907961 -0.82359727 116.9104627 13.07592773 110.08496094 C14.07052002 109.59930664 15.0651123 109.11365234 16.08984375 108.61328125 C16.96761475 108.18055908 17.84538574 107.74783691 18.74975586 107.30200195 C20.875 106.375 20.875 106.375 22.875 106.375 C22.82859375 105.68535156 22.7821875 104.99570313 22.734375 104.28515625 C22.47296077 97.47905009 22.98994196 92.1054606 26.875 86.375 C31.20438228 81.73510875 35.59601575 77.758625 42.046875 77.00390625 C48.90736882 76.87658267 53.76324449 76.80632151 59.12890625 81.37890625 C60.86484458 82.57017104 60.86484458 82.57017104 63.1171875 82.30859375 C66.92258553 81.0203641 70.0696423 79.04071234 73.4375 76.875 C74.14350342 76.42648682 74.84950684 75.97797363 75.5769043 75.51586914 C83.01639917 70.73327659 90.14287449 65.59218047 96.84765625 59.8125 C97.80542969 58.9875 98.76320313 58.1625 99.75 57.3125 C100.59304688 56.55839844 101.43609375 55.80429688 102.3046875 55.02734375 C105.44400539 53.00921082 107.2068835 52.93903533 110.875 53.375 C113.75 54.875 113.75 54.875 115.875 57.375 C116.8733971 60.9941895 117.12675786 61.99993325 115.875 65.375 C112.7195545 69.30252259 108.857313 72.32847311 104.875 75.375 C104.2051709 75.88756348 103.5353418 76.40012695 102.84521484 76.92822266 C94.76135639 83.04031859 86.45014306 88.78670043 77.875 94.1875 C77.19864502 94.61417969 76.52229004 95.04085937 75.82543945 95.48046875 C71.13093229 98.375 71.13093229 98.375 68.875 98.375 C68.87242187 98.99246094 68.86984375 99.60992187 68.8671875 100.24609375 C68.54643008 107.27068115 66.93807146 112.35021264 61.875 117.375 C55.53690698 121.68632555 49.55724849 124.52733727 41.875 123.375 C39.800925 122.65391972 37.81658673 121.87364635 35.83203125 120.93359375 C31.25370146 119.62680501 27.06141756 122.09769163 23.02734375 124.11328125 C21.30559937 124.96345825 21.30559937 124.96345825 19.54907227 125.83081055 C18.63751877 126.28440445 18.63751877 126.28440445 17.70755005 126.74716187 C-6.91905186 138.96706757 -32.18090578 149.31476046 -58.125 158.375 C-59.35524902 158.80796387 -60.58549805 159.24092773 -61.85302734 159.68701172 C-70.17436246 162.57073852 -78.51216118 164.79833179 -87.125 166.625 C-88.28644531 166.88023437 -89.44789062 167.13546875 -90.64453125 167.3984375 C-116.74753284 173.06651784 -116.74753284 173.06651784 -127.125 167.375 C-130.90982322 164.3487054 -132.87757288 161.73584915 -133.75 156.9375 C-132.46650242 149.62156379 -129.04882365 144.97534727 -124.1875 139.5625 C-123.72069824 139.03825439 -123.25389648 138.51400879 -122.77294922 137.97387695 C-120.21147092 135.21963111 -117.77027294 133.04539153 -114.515625 131.14453125 C-110.59351402 128.74115233 -107.24860229 126.57463284 -105.125 122.375 C-103.88487291 115.40720563 -104.41527219 108.40728392 -104.86328125 101.3828125 C-105.44739545 91.45837504 -103.76959262 81.94511563 -100.5625 72.5625 C-100.3056543 71.80751221 -100.04880859 71.05252441 -99.78417969 70.2746582 C-90.12556265 43.23900298 -69.73089268 22.2046649 -44.31054688 9.38867188 C-30.10270183 2.79897431 -15.59434694 -0.01830203 0 0 Z " fill="#FEFCFC" transform="translate(159.125,53.625)"/>
<path d="M0 0 C1.12838033 3.38514099 0.87873667 4.1491154 -0.1875 7.4296875 C-0.61180298 8.73703857 -0.61180298 8.73703857 -1.04467773 10.07080078 C-1.35993408 10.99618652 -1.67519043 11.92157227 -2 12.875 C-2.32105713 13.8222998 -2.64211426 14.76959961 -2.97290039 15.74560547 C-12.06481227 41.78910396 -30.98918961 63.84093252 -55.76953125 76.11328125 C-81.88617372 88.23054728 -110.49672812 90.98689104 -137.953125 81.5390625 C-154.73426092 75.37406629 -170.33881986 65.67092261 -182 52 C-182 51.34 -182 50.68 -182 50 C-181.16984375 49.75507813 -180.3396875 49.51015625 -179.484375 49.2578125 C-160.26156349 43.42662491 -141.20761671 36.75279384 -122.83935547 28.60449219 C-122.00678223 28.24645508 -121.17420898 27.88841797 -120.31640625 27.51953125 C-119.24048218 27.04157104 -119.24048218 27.04157104 -118.14282227 26.55395508 C-113.03813172 25.23430795 -108.90049024 27.95581543 -104.5 30.3125 C-86.51706428 39.65310465 -66.04429041 42.17878477 -46.52832031 36.3347168 C-26.76316744 29.85379949 -10.49171896 18.27589754 0 0 Z " fill="#FEFCFC" transform="translate(263,179)"/>
<path d="M0 0 C0.6708712 1.6232687 1.33657029 3.24867578 2 4.875 C2.556875 6.23238281 2.556875 6.23238281 3.125 7.6171875 C4 10 4 10 4 12 C-2.43028541 13.32388229 -8.4294834 14.24794402 -15 14 C-13.47238013 10.37190281 -11.29392861 8.05653702 -8.5 5.3125 C-7.7059375 4.52488281 -6.911875 3.73726562 -6.09375 2.92578125 C-2.9127789 0 -2.9127789 0 0 0 Z " fill="#DD403D" transform="translate(60,194)"/>
</svg>
